<mxfile host="app.diagrams.net" modified="2023-07-19T13:32:54.274Z" agent="Mozilla/5.0 (Windows NT 10.0; Win64; x64) AppleWebKit/537.36 (KHTML, like Gecko) Chrome/114.0.0.0 Safari/537.36" etag="UexMG6zY5xxqZzQ4nFsx" version="21.6.3" type="github">
  <diagram name="第 1 页" id="b2K1S6xK_BU8v7OGKpN8">
    <mxGraphModel dx="1750" dy="902" grid="0" gridSize="10" guides="1" tooltips="1" connect="1" arrows="1" fold="1" page="1" pageScale="1" pageWidth="3300" pageHeight="4681" math="0" shadow="0">
      <root>
        <mxCell id="0" />
        <mxCell id="1" parent="0" />
        <mxCell id="8orbVFQaiTQvULs6llBa-6" value="" style="edgeStyle=orthogonalEdgeStyle;rounded=0;orthogonalLoop=1;jettySize=auto;html=1;endArrow=none;endFill=0;" edge="1" parent="1" source="8orbVFQaiTQvULs6llBa-2" target="8orbVFQaiTQvULs6llBa-4">
          <mxGeometry relative="1" as="geometry" />
        </mxCell>
        <mxCell id="8orbVFQaiTQvULs6llBa-7" style="edgeStyle=orthogonalEdgeStyle;rounded=0;orthogonalLoop=1;jettySize=auto;html=1;startArrow=none;startFill=0;endArrow=none;endFill=0;" edge="1" parent="1" source="8orbVFQaiTQvULs6llBa-2" target="8orbVFQaiTQvULs6llBa-3">
          <mxGeometry relative="1" as="geometry">
            <Array as="points">
              <mxPoint x="817" y="285" />
              <mxPoint x="339" y="285" />
            </Array>
          </mxGeometry>
        </mxCell>
        <mxCell id="8orbVFQaiTQvULs6llBa-8" style="edgeStyle=orthogonalEdgeStyle;rounded=0;orthogonalLoop=1;jettySize=auto;html=1;endArrow=none;endFill=0;entryX=0.5;entryY=0;entryDx=0;entryDy=0;" edge="1" parent="1" target="8orbVFQaiTQvULs6llBa-5">
          <mxGeometry relative="1" as="geometry">
            <mxPoint x="817.0588235294117" y="253" as="sourcePoint" />
            <mxPoint x="1007.0588235294117" y="313" as="targetPoint" />
            <Array as="points">
              <mxPoint x="817" y="285" />
              <mxPoint x="1164" y="285" />
              <mxPoint x="1297" y="284" />
            </Array>
          </mxGeometry>
        </mxCell>
        <mxCell id="8orbVFQaiTQvULs6llBa-2" value="城市巡防车" style="rounded=1;whiteSpace=wrap;html=1;" vertex="1" parent="1">
          <mxGeometry x="757" y="194" width="120" height="60" as="geometry" />
        </mxCell>
        <mxCell id="8orbVFQaiTQvULs6llBa-33" value="" style="edgeStyle=orthogonalEdgeStyle;rounded=0;orthogonalLoop=1;jettySize=auto;html=1;endArrow=none;endFill=0;" edge="1" parent="1" source="8orbVFQaiTQvULs6llBa-3" target="8orbVFQaiTQvULs6llBa-10">
          <mxGeometry relative="1" as="geometry" />
        </mxCell>
        <mxCell id="8orbVFQaiTQvULs6llBa-34" style="edgeStyle=orthogonalEdgeStyle;rounded=0;orthogonalLoop=1;jettySize=auto;html=1;endArrow=none;endFill=0;" edge="1" parent="1" source="8orbVFQaiTQvULs6llBa-3" target="8orbVFQaiTQvULs6llBa-11">
          <mxGeometry relative="1" as="geometry">
            <Array as="points">
              <mxPoint x="339" y="399.5" />
              <mxPoint x="419" y="399.5" />
            </Array>
          </mxGeometry>
        </mxCell>
        <mxCell id="8orbVFQaiTQvULs6llBa-36" style="edgeStyle=orthogonalEdgeStyle;rounded=0;orthogonalLoop=1;jettySize=auto;html=1;entryX=0.5;entryY=0;entryDx=0;entryDy=0;endArrow=none;endFill=0;" edge="1" parent="1" source="8orbVFQaiTQvULs6llBa-3" target="8orbVFQaiTQvULs6llBa-9">
          <mxGeometry relative="1" as="geometry" />
        </mxCell>
        <mxCell id="8orbVFQaiTQvULs6llBa-38" style="edgeStyle=orthogonalEdgeStyle;rounded=0;orthogonalLoop=1;jettySize=auto;html=1;endArrow=none;endFill=0;" edge="1" parent="1" source="8orbVFQaiTQvULs6llBa-3" target="8orbVFQaiTQvULs6llBa-32">
          <mxGeometry relative="1" as="geometry">
            <Array as="points">
              <mxPoint x="339" y="399.5" />
              <mxPoint x="260" y="399.5" />
            </Array>
          </mxGeometry>
        </mxCell>
        <mxCell id="8orbVFQaiTQvULs6llBa-3" value="STM32G474" style="rounded=1;whiteSpace=wrap;html=1;" vertex="1" parent="1">
          <mxGeometry x="279" y="311.5" width="120" height="60" as="geometry" />
        </mxCell>
        <mxCell id="8orbVFQaiTQvULs6llBa-27" style="edgeStyle=orthogonalEdgeStyle;rounded=0;orthogonalLoop=1;jettySize=auto;html=1;entryX=0.5;entryY=0;entryDx=0;entryDy=0;endArrow=none;endFill=0;" edge="1" parent="1">
          <mxGeometry relative="1" as="geometry">
            <mxPoint x="817" y="382" as="sourcePoint" />
            <mxPoint x="919.5" y="435.5" as="targetPoint" />
            <Array as="points">
              <mxPoint x="817" y="402" />
              <mxPoint x="920" y="402" />
            </Array>
          </mxGeometry>
        </mxCell>
        <mxCell id="8orbVFQaiTQvULs6llBa-30" style="edgeStyle=orthogonalEdgeStyle;rounded=0;orthogonalLoop=1;jettySize=auto;html=1;entryX=0.5;entryY=0;entryDx=0;entryDy=0;endArrow=none;endFill=0;" edge="1" parent="1" source="8orbVFQaiTQvULs6llBa-4" target="8orbVFQaiTQvULs6llBa-20">
          <mxGeometry relative="1" as="geometry">
            <Array as="points">
              <mxPoint x="817" y="402" />
              <mxPoint x="667" y="402" />
              <mxPoint x="667" y="427" />
            </Array>
          </mxGeometry>
        </mxCell>
        <mxCell id="8orbVFQaiTQvULs6llBa-55" style="edgeStyle=orthogonalEdgeStyle;rounded=0;orthogonalLoop=1;jettySize=auto;html=1;entryX=0.5;entryY=0;entryDx=0;entryDy=0;endArrow=none;endFill=0;" edge="1" parent="1" target="8orbVFQaiTQvULs6llBa-19">
          <mxGeometry relative="1" as="geometry">
            <mxPoint x="817" y="372" as="sourcePoint" />
            <mxPoint x="658.5" y="428" as="targetPoint" />
            <Array as="points">
              <mxPoint x="817" y="402" />
              <mxPoint x="582" y="402" />
              <mxPoint x="582" y="427" />
            </Array>
          </mxGeometry>
        </mxCell>
        <mxCell id="8orbVFQaiTQvULs6llBa-76" style="edgeStyle=orthogonalEdgeStyle;rounded=0;orthogonalLoop=1;jettySize=auto;html=1;entryX=0.5;entryY=0;entryDx=0;entryDy=0;endArrow=none;endFill=0;" edge="1" parent="1">
          <mxGeometry relative="1" as="geometry">
            <mxPoint x="817" y="382" as="sourcePoint" />
            <mxPoint x="729" y="435.5" as="targetPoint" />
            <Array as="points">
              <mxPoint x="817" y="402" />
              <mxPoint x="729" y="402" />
            </Array>
          </mxGeometry>
        </mxCell>
        <mxCell id="8orbVFQaiTQvULs6llBa-83" style="edgeStyle=orthogonalEdgeStyle;rounded=0;orthogonalLoop=1;jettySize=auto;html=1;endArrow=none;endFill=0;" edge="1" parent="1">
          <mxGeometry relative="1" as="geometry">
            <mxPoint x="817" y="382" as="sourcePoint" />
            <mxPoint x="1012.04347826087" y="435.5" as="targetPoint" />
            <Array as="points">
              <mxPoint x="817" y="402" />
              <mxPoint x="1012" y="402" />
            </Array>
          </mxGeometry>
        </mxCell>
        <mxCell id="8orbVFQaiTQvULs6llBa-84" style="edgeStyle=orthogonalEdgeStyle;rounded=0;orthogonalLoop=1;jettySize=auto;html=1;endArrow=none;endFill=0;" edge="1" parent="1">
          <mxGeometry relative="1" as="geometry">
            <mxPoint x="817" y="382" as="sourcePoint" />
            <mxPoint x="1077.9565217391305" y="435.5" as="targetPoint" />
            <Array as="points">
              <mxPoint x="817" y="402" />
              <mxPoint x="1078" y="402" />
            </Array>
          </mxGeometry>
        </mxCell>
        <mxCell id="8orbVFQaiTQvULs6llBa-4" value="STM32F411" style="rounded=1;whiteSpace=wrap;html=1;" vertex="1" parent="1">
          <mxGeometry x="757" y="314" width="120" height="60" as="geometry" />
        </mxCell>
        <mxCell id="8orbVFQaiTQvULs6llBa-100" value="" style="edgeStyle=orthogonalEdgeStyle;rounded=0;orthogonalLoop=1;jettySize=auto;html=1;endArrow=none;endFill=0;" edge="1" parent="1" source="8orbVFQaiTQvULs6llBa-5" target="8orbVFQaiTQvULs6llBa-98">
          <mxGeometry relative="1" as="geometry" />
        </mxCell>
        <mxCell id="8orbVFQaiTQvULs6llBa-101" style="edgeStyle=orthogonalEdgeStyle;rounded=0;orthogonalLoop=1;jettySize=auto;html=1;entryX=0.5;entryY=0;entryDx=0;entryDy=0;endArrow=none;endFill=0;" edge="1" parent="1" source="8orbVFQaiTQvULs6llBa-5" target="8orbVFQaiTQvULs6llBa-96">
          <mxGeometry relative="1" as="geometry" />
        </mxCell>
        <mxCell id="8orbVFQaiTQvULs6llBa-102" style="edgeStyle=orthogonalEdgeStyle;rounded=0;orthogonalLoop=1;jettySize=auto;html=1;entryX=0.5;entryY=0;entryDx=0;entryDy=0;endArrow=none;endFill=0;" edge="1" parent="1" source="8orbVFQaiTQvULs6llBa-5" target="8orbVFQaiTQvULs6llBa-97">
          <mxGeometry relative="1" as="geometry" />
        </mxCell>
        <mxCell id="8orbVFQaiTQvULs6llBa-5" value="STM32H750" style="rounded=1;whiteSpace=wrap;html=1;" vertex="1" parent="1">
          <mxGeometry x="1237" y="314" width="120" height="60" as="geometry" />
        </mxCell>
        <mxCell id="8orbVFQaiTQvULs6llBa-41" style="edgeStyle=orthogonalEdgeStyle;rounded=0;orthogonalLoop=1;jettySize=auto;html=1;entryX=0.75;entryY=0;entryDx=0;entryDy=0;endArrow=none;endFill=0;" edge="1" parent="1" source="8orbVFQaiTQvULs6llBa-9" target="8orbVFQaiTQvULs6llBa-39">
          <mxGeometry relative="1" as="geometry">
            <Array as="points">
              <mxPoint x="313" y="578.5" />
              <mxPoint x="296" y="578.5" />
              <mxPoint x="296" y="593.5" />
            </Array>
          </mxGeometry>
        </mxCell>
        <mxCell id="8orbVFQaiTQvULs6llBa-42" style="edgeStyle=orthogonalEdgeStyle;rounded=0;orthogonalLoop=1;jettySize=auto;html=1;endArrow=none;endFill=0;" edge="1" parent="1" source="8orbVFQaiTQvULs6llBa-9" target="8orbVFQaiTQvULs6llBa-40">
          <mxGeometry relative="1" as="geometry" />
        </mxCell>
        <mxCell id="8orbVFQaiTQvULs6llBa-9" value="底盘控制" style="rounded=0;whiteSpace=wrap;html=1;" vertex="1" parent="1">
          <mxGeometry x="300" y="427.5" width="25" height="131" as="geometry" />
        </mxCell>
        <mxCell id="8orbVFQaiTQvULs6llBa-44" value="" style="edgeStyle=orthogonalEdgeStyle;rounded=0;orthogonalLoop=1;jettySize=auto;html=1;endArrow=none;endFill=0;" edge="1" parent="1" source="8orbVFQaiTQvULs6llBa-10" target="8orbVFQaiTQvULs6llBa-43">
          <mxGeometry relative="1" as="geometry" />
        </mxCell>
        <mxCell id="8orbVFQaiTQvULs6llBa-10" value="TCP通信" style="rounded=0;whiteSpace=wrap;html=1;" vertex="1" parent="1">
          <mxGeometry x="353" y="427.5" width="25" height="131" as="geometry" />
        </mxCell>
        <mxCell id="8orbVFQaiTQvULs6llBa-47" style="edgeStyle=orthogonalEdgeStyle;rounded=0;orthogonalLoop=1;jettySize=auto;html=1;entryX=0.5;entryY=0;entryDx=0;entryDy=0;endArrow=none;endFill=0;" edge="1" parent="1" source="8orbVFQaiTQvULs6llBa-11" target="8orbVFQaiTQvULs6llBa-45">
          <mxGeometry relative="1" as="geometry" />
        </mxCell>
        <mxCell id="8orbVFQaiTQvULs6llBa-48" style="edgeStyle=orthogonalEdgeStyle;rounded=0;orthogonalLoop=1;jettySize=auto;html=1;entryX=0.5;entryY=0;entryDx=0;entryDy=0;endArrow=none;endFill=0;" edge="1" parent="1" source="8orbVFQaiTQvULs6llBa-11" target="8orbVFQaiTQvULs6llBa-46">
          <mxGeometry relative="1" as="geometry" />
        </mxCell>
        <mxCell id="8orbVFQaiTQvULs6llBa-11" value="姿态检测" style="rounded=0;whiteSpace=wrap;html=1;" vertex="1" parent="1">
          <mxGeometry x="406" y="427.5" width="25" height="131" as="geometry" />
        </mxCell>
        <mxCell id="8orbVFQaiTQvULs6llBa-56" style="edgeStyle=orthogonalEdgeStyle;rounded=0;orthogonalLoop=1;jettySize=auto;html=1;entryX=0.5;entryY=0;entryDx=0;entryDy=0;endArrow=none;endFill=0;" edge="1" parent="1" source="8orbVFQaiTQvULs6llBa-19" target="8orbVFQaiTQvULs6llBa-52">
          <mxGeometry relative="1" as="geometry" />
        </mxCell>
        <mxCell id="8orbVFQaiTQvULs6llBa-57" style="edgeStyle=orthogonalEdgeStyle;rounded=0;orthogonalLoop=1;jettySize=auto;html=1;entryX=0.5;entryY=0;entryDx=0;entryDy=0;endArrow=none;endFill=0;" edge="1" parent="1" source="8orbVFQaiTQvULs6llBa-19" target="8orbVFQaiTQvULs6llBa-53">
          <mxGeometry relative="1" as="geometry" />
        </mxCell>
        <mxCell id="8orbVFQaiTQvULs6llBa-58" style="edgeStyle=orthogonalEdgeStyle;rounded=0;orthogonalLoop=1;jettySize=auto;html=1;endArrow=none;endFill=0;" edge="1" parent="1">
          <mxGeometry relative="1" as="geometry">
            <mxPoint x="581.5" y="565.5" as="sourcePoint" />
            <mxPoint x="623.0000000000002" y="599.5" as="targetPoint" />
            <Array as="points">
              <mxPoint x="582" y="578.5" />
              <mxPoint x="623" y="578.5" />
            </Array>
          </mxGeometry>
        </mxCell>
        <mxCell id="8orbVFQaiTQvULs6llBa-59" style="edgeStyle=orthogonalEdgeStyle;rounded=0;orthogonalLoop=1;jettySize=auto;html=1;entryX=0.5;entryY=0;entryDx=0;entryDy=0;endArrow=none;endFill=0;" edge="1" parent="1">
          <mxGeometry relative="1" as="geometry">
            <mxPoint x="581.5121951219514" y="565.5" as="sourcePoint" />
            <mxPoint x="539.5" y="599" as="targetPoint" />
            <Array as="points">
              <mxPoint x="582" y="578.5" />
              <mxPoint x="540" y="578.5" />
            </Array>
          </mxGeometry>
        </mxCell>
        <mxCell id="8orbVFQaiTQvULs6llBa-19" value="气象数据采集" style="rounded=0;whiteSpace=wrap;html=1;" vertex="1" parent="1">
          <mxGeometry x="569" y="427.5" width="25" height="131" as="geometry" />
        </mxCell>
        <mxCell id="8orbVFQaiTQvULs6llBa-62" style="edgeStyle=orthogonalEdgeStyle;rounded=0;orthogonalLoop=1;jettySize=auto;html=1;entryX=0.5;entryY=0;entryDx=0;entryDy=0;endArrow=none;endFill=0;" edge="1" parent="1" source="8orbVFQaiTQvULs6llBa-20" target="8orbVFQaiTQvULs6llBa-60">
          <mxGeometry relative="1" as="geometry" />
        </mxCell>
        <mxCell id="8orbVFQaiTQvULs6llBa-63" style="edgeStyle=orthogonalEdgeStyle;rounded=0;orthogonalLoop=1;jettySize=auto;html=1;endArrow=none;endFill=0;" edge="1" parent="1" source="8orbVFQaiTQvULs6llBa-20">
          <mxGeometry relative="1" as="geometry">
            <mxPoint x="676.9999999999998" y="591.5" as="targetPoint" />
          </mxGeometry>
        </mxCell>
        <mxCell id="8orbVFQaiTQvULs6llBa-20" value="异常环境数据采集" style="rounded=0;whiteSpace=wrap;html=1;" vertex="1" parent="1">
          <mxGeometry x="653" y="427.5" width="25" height="131" as="geometry" />
        </mxCell>
        <mxCell id="8orbVFQaiTQvULs6llBa-71" style="edgeStyle=orthogonalEdgeStyle;rounded=0;orthogonalLoop=1;jettySize=auto;html=1;entryX=0.5;entryY=0;entryDx=0;entryDy=0;endArrow=none;endFill=0;" edge="1" parent="1" source="8orbVFQaiTQvULs6llBa-21" target="8orbVFQaiTQvULs6llBa-65">
          <mxGeometry relative="1" as="geometry" />
        </mxCell>
        <mxCell id="8orbVFQaiTQvULs6llBa-72" style="edgeStyle=orthogonalEdgeStyle;rounded=0;orthogonalLoop=1;jettySize=auto;html=1;entryX=0.5;entryY=0;entryDx=0;entryDy=0;endArrow=none;endFill=0;" edge="1" parent="1">
          <mxGeometry relative="1" as="geometry">
            <mxPoint x="729.014492753623" y="564.5" as="sourcePoint" />
            <mxPoint x="751.4999999999998" y="598" as="targetPoint" />
            <Array as="points">
              <mxPoint x="729" y="577.5" />
              <mxPoint x="751" y="577.5" />
              <mxPoint x="751" y="584.5" />
              <mxPoint x="752" y="584.5" />
            </Array>
          </mxGeometry>
        </mxCell>
        <mxCell id="8orbVFQaiTQvULs6llBa-73" style="edgeStyle=orthogonalEdgeStyle;rounded=0;orthogonalLoop=1;jettySize=auto;html=1;entryX=0.5;entryY=0;entryDx=0;entryDy=0;endArrow=none;endFill=0;" edge="1" parent="1">
          <mxGeometry relative="1" as="geometry">
            <mxPoint x="729" y="564.5" as="sourcePoint" />
            <mxPoint x="704.0000000000002" y="597.5" as="targetPoint" />
            <Array as="points">
              <mxPoint x="729" y="577.5" />
              <mxPoint x="704" y="577.5" />
            </Array>
          </mxGeometry>
        </mxCell>
        <mxCell id="8orbVFQaiTQvULs6llBa-21" value="云平台通信" style="rounded=0;whiteSpace=wrap;html=1;" vertex="1" parent="1">
          <mxGeometry x="716.5" y="427.5" width="25" height="131" as="geometry" />
        </mxCell>
        <mxCell id="8orbVFQaiTQvULs6llBa-86" style="edgeStyle=orthogonalEdgeStyle;rounded=0;orthogonalLoop=1;jettySize=auto;html=1;entryX=0.5;entryY=0;entryDx=0;entryDy=0;endArrow=none;endFill=0;" edge="1" parent="1" source="8orbVFQaiTQvULs6llBa-22" target="8orbVFQaiTQvULs6llBa-79">
          <mxGeometry relative="1" as="geometry" />
        </mxCell>
        <mxCell id="8orbVFQaiTQvULs6llBa-87" style="edgeStyle=orthogonalEdgeStyle;rounded=0;orthogonalLoop=1;jettySize=auto;html=1;entryX=0.5;entryY=0;entryDx=0;entryDy=0;endArrow=none;endFill=0;" edge="1" parent="1" source="8orbVFQaiTQvULs6llBa-22" target="8orbVFQaiTQvULs6llBa-80">
          <mxGeometry relative="1" as="geometry" />
        </mxCell>
        <mxCell id="8orbVFQaiTQvULs6llBa-89" style="edgeStyle=orthogonalEdgeStyle;rounded=0;orthogonalLoop=1;jettySize=auto;html=1;entryX=0.5;entryY=0;entryDx=0;entryDy=0;endArrow=none;endFill=0;" edge="1" parent="1">
          <mxGeometry relative="1" as="geometry">
            <mxPoint x="919.5087719298244" y="562.5000000000001" as="sourcePoint" />
            <mxPoint x="987" y="596.5" as="targetPoint" />
            <Array as="points">
              <mxPoint x="920" y="578" />
              <mxPoint x="987" y="578" />
            </Array>
          </mxGeometry>
        </mxCell>
        <mxCell id="8orbVFQaiTQvULs6llBa-90" style="edgeStyle=orthogonalEdgeStyle;rounded=0;orthogonalLoop=1;jettySize=auto;html=1;entryX=0.5;entryY=0;entryDx=0;entryDy=0;endArrow=none;endFill=0;" edge="1" parent="1">
          <mxGeometry relative="1" as="geometry">
            <mxPoint x="919.5106382978724" y="562.5000000000001" as="sourcePoint" />
            <mxPoint x="851" y="596" as="targetPoint" />
            <Array as="points">
              <mxPoint x="920" y="578" />
              <mxPoint x="851" y="578" />
            </Array>
          </mxGeometry>
        </mxCell>
        <mxCell id="8orbVFQaiTQvULs6llBa-22" value="语音交互" style="rounded=0;whiteSpace=wrap;html=1;" vertex="1" parent="1">
          <mxGeometry x="907" y="427.5" width="25" height="131" as="geometry" />
        </mxCell>
        <mxCell id="8orbVFQaiTQvULs6llBa-93" value="" style="edgeStyle=orthogonalEdgeStyle;rounded=0;orthogonalLoop=1;jettySize=auto;html=1;endArrow=none;endFill=0;" edge="1" parent="1" source="8orbVFQaiTQvULs6llBa-23" target="8orbVFQaiTQvULs6llBa-91">
          <mxGeometry relative="1" as="geometry" />
        </mxCell>
        <mxCell id="8orbVFQaiTQvULs6llBa-23" value="GPS经纬度采集" style="rounded=0;whiteSpace=wrap;html=1;" vertex="1" parent="1">
          <mxGeometry x="1000" y="427.5" width="25" height="131" as="geometry" />
        </mxCell>
        <mxCell id="8orbVFQaiTQvULs6llBa-95" value="" style="edgeStyle=orthogonalEdgeStyle;rounded=0;orthogonalLoop=1;jettySize=auto;html=1;endArrow=none;endFill=0;" edge="1" parent="1" source="8orbVFQaiTQvULs6llBa-25" target="8orbVFQaiTQvULs6llBa-94">
          <mxGeometry relative="1" as="geometry" />
        </mxCell>
        <mxCell id="8orbVFQaiTQvULs6llBa-25" value="TCP通信" style="rounded=0;whiteSpace=wrap;html=1;" vertex="1" parent="1">
          <mxGeometry x="1065" y="427.5" width="25" height="131" as="geometry" />
        </mxCell>
        <mxCell id="8orbVFQaiTQvULs6llBa-50" value="" style="edgeStyle=orthogonalEdgeStyle;rounded=0;orthogonalLoop=1;jettySize=auto;html=1;endArrow=none;endFill=0;" edge="1" parent="1" source="8orbVFQaiTQvULs6llBa-32" target="8orbVFQaiTQvULs6llBa-49">
          <mxGeometry relative="1" as="geometry" />
        </mxCell>
        <mxCell id="8orbVFQaiTQvULs6llBa-32" value="蓝牙通信" style="rounded=0;whiteSpace=wrap;html=1;" vertex="1" parent="1">
          <mxGeometry x="247" y="427.5" width="25" height="131" as="geometry" />
        </mxCell>
        <mxCell id="8orbVFQaiTQvULs6llBa-39" value="PWM驱动" style="rounded=0;whiteSpace=wrap;html=1;" vertex="1" parent="1">
          <mxGeometry x="282.5" y="593.5" width="26" height="80" as="geometry" />
        </mxCell>
        <mxCell id="8orbVFQaiTQvULs6llBa-40" value="编码器测速" style="rounded=0;whiteSpace=wrap;html=1;" vertex="1" parent="1">
          <mxGeometry x="317.5" y="593.5" width="25" height="79" as="geometry" />
        </mxCell>
        <mxCell id="8orbVFQaiTQvULs6llBa-43" value="TCP客户端监听" style="rounded=0;whiteSpace=wrap;html=1;" vertex="1" parent="1">
          <mxGeometry x="353" y="594.5" width="25" height="79" as="geometry" />
        </mxCell>
        <mxCell id="8orbVFQaiTQvULs6llBa-45" value="MPU姿态解析" style="rounded=0;whiteSpace=wrap;html=1;" vertex="1" parent="1">
          <mxGeometry x="387.75" y="593.5" width="25" height="79" as="geometry" />
        </mxCell>
        <mxCell id="8orbVFQaiTQvULs6llBa-46" value="四元数解算" style="rounded=0;whiteSpace=wrap;html=1;" vertex="1" parent="1">
          <mxGeometry x="424.25" y="592.5" width="25" height="79" as="geometry" />
        </mxCell>
        <mxCell id="8orbVFQaiTQvULs6llBa-49" value="运动控制" style="rounded=0;whiteSpace=wrap;html=1;" vertex="1" parent="1">
          <mxGeometry x="247" y="593" width="26" height="80" as="geometry" />
        </mxCell>
        <mxCell id="8orbVFQaiTQvULs6llBa-51" value="温度" style="rounded=0;whiteSpace=wrap;html=1;" vertex="1" parent="1">
          <mxGeometry x="527" y="592" width="25" height="79" as="geometry" />
        </mxCell>
        <mxCell id="8orbVFQaiTQvULs6llBa-52" value="湿度" style="rounded=0;whiteSpace=wrap;html=1;" vertex="1" parent="1">
          <mxGeometry x="557" y="592" width="23" height="79" as="geometry" />
        </mxCell>
        <mxCell id="8orbVFQaiTQvULs6llBa-53" value="光照" style="rounded=0;whiteSpace=wrap;html=1;" vertex="1" parent="1">
          <mxGeometry x="587" y="592.5" width="21" height="79" as="geometry" />
        </mxCell>
        <mxCell id="8orbVFQaiTQvULs6llBa-54" value="气压" style="rounded=0;whiteSpace=wrap;html=1;" vertex="1" parent="1">
          <mxGeometry x="617" y="592.5" width="19" height="79" as="geometry" />
        </mxCell>
        <mxCell id="8orbVFQaiTQvULs6llBa-60" value="气压" style="rounded=0;whiteSpace=wrap;html=1;" vertex="1" parent="1">
          <mxGeometry x="646" y="592" width="14" height="79" as="geometry" />
        </mxCell>
        <mxCell id="8orbVFQaiTQvULs6llBa-61" value="气压" style="rounded=0;whiteSpace=wrap;html=1;" vertex="1" parent="1">
          <mxGeometry x="671" y="592" width="14" height="79" as="geometry" />
        </mxCell>
        <mxCell id="8orbVFQaiTQvULs6llBa-64" value="采集命令下发" style="rounded=0;whiteSpace=wrap;html=1;" vertex="1" parent="1">
          <mxGeometry x="697" y="591.5" width="14" height="90" as="geometry" />
        </mxCell>
        <mxCell id="8orbVFQaiTQvULs6llBa-65" value="本地解析指令" style="rounded=0;whiteSpace=wrap;html=1;" vertex="1" parent="1">
          <mxGeometry x="722" y="591.5" width="14" height="90" as="geometry" />
        </mxCell>
        <mxCell id="8orbVFQaiTQvULs6llBa-66" value="云端UI查看" style="rounded=0;whiteSpace=wrap;html=1;" vertex="1" parent="1">
          <mxGeometry x="744.5" y="592" width="14" height="89.5" as="geometry" />
        </mxCell>
        <mxCell id="8orbVFQaiTQvULs6llBa-77" value="姿态警报" style="rounded=0;whiteSpace=wrap;html=1;" vertex="1" parent="1">
          <mxGeometry x="977" y="592" width="20" height="91.5" as="geometry" />
        </mxCell>
        <mxCell id="8orbVFQaiTQvULs6llBa-78" value="火灾警报" style="rounded=0;whiteSpace=wrap;html=1;" vertex="1" parent="1">
          <mxGeometry x="841" y="592" width="20" height="91.5" as="geometry" />
        </mxCell>
        <mxCell id="8orbVFQaiTQvULs6llBa-79" value="气象任务完成提示" style="rounded=0;whiteSpace=wrap;html=1;" vertex="1" parent="1">
          <mxGeometry x="877" y="591.5" width="30" height="91.5" as="geometry" />
        </mxCell>
        <mxCell id="8orbVFQaiTQvULs6llBa-80" value="异常环境监测提示" style="rounded=0;whiteSpace=wrap;html=1;" vertex="1" parent="1">
          <mxGeometry x="923.5" y="592" width="33.5" height="91.5" as="geometry" />
        </mxCell>
        <mxCell id="8orbVFQaiTQvULs6llBa-91" value="地图数据" style="rounded=0;whiteSpace=wrap;html=1;" vertex="1" parent="1">
          <mxGeometry x="1002.5" y="592" width="20" height="91.5" as="geometry" />
        </mxCell>
        <mxCell id="8orbVFQaiTQvULs6llBa-94" value="TCP服务端" style="rounded=0;whiteSpace=wrap;html=1;" vertex="1" parent="1">
          <mxGeometry x="1067.5" y="592.5" width="20" height="91.5" as="geometry" />
        </mxCell>
        <mxCell id="8orbVFQaiTQvULs6llBa-117" value="" style="edgeStyle=orthogonalEdgeStyle;rounded=0;orthogonalLoop=1;jettySize=auto;html=1;endArrow=none;endFill=0;" edge="1" parent="1" source="8orbVFQaiTQvULs6llBa-96" target="8orbVFQaiTQvULs6llBa-116">
          <mxGeometry relative="1" as="geometry" />
        </mxCell>
        <mxCell id="8orbVFQaiTQvULs6llBa-96" value="TCP通信" style="rounded=0;whiteSpace=wrap;html=1;" vertex="1" parent="1">
          <mxGeometry x="1357" y="427.5" width="25" height="131" as="geometry" />
        </mxCell>
        <mxCell id="8orbVFQaiTQvULs6llBa-110" value="" style="edgeStyle=orthogonalEdgeStyle;rounded=0;orthogonalLoop=1;jettySize=auto;html=1;entryX=0.5;entryY=0;entryDx=0;entryDy=0;endArrow=none;endFill=0;" edge="1" parent="1" source="8orbVFQaiTQvULs6llBa-97" target="8orbVFQaiTQvULs6llBa-104">
          <mxGeometry relative="1" as="geometry" />
        </mxCell>
        <mxCell id="8orbVFQaiTQvULs6llBa-111" style="edgeStyle=orthogonalEdgeStyle;rounded=0;orthogonalLoop=1;jettySize=auto;html=1;endArrow=none;endFill=0;" edge="1" parent="1" source="8orbVFQaiTQvULs6llBa-97" target="8orbVFQaiTQvULs6llBa-105">
          <mxGeometry relative="1" as="geometry">
            <Array as="points">
              <mxPoint x="1229" y="574" />
              <mxPoint x="1266" y="574" />
            </Array>
          </mxGeometry>
        </mxCell>
        <mxCell id="8orbVFQaiTQvULs6llBa-112" style="edgeStyle=orthogonalEdgeStyle;rounded=0;orthogonalLoop=1;jettySize=auto;html=1;entryX=0.5;entryY=0;entryDx=0;entryDy=0;endArrow=none;endFill=0;" edge="1" parent="1" source="8orbVFQaiTQvULs6llBa-97" target="8orbVFQaiTQvULs6llBa-103">
          <mxGeometry relative="1" as="geometry">
            <Array as="points">
              <mxPoint x="1229" y="574" />
              <mxPoint x="1192" y="574" />
            </Array>
          </mxGeometry>
        </mxCell>
        <mxCell id="8orbVFQaiTQvULs6llBa-97" value="UI显示" style="rounded=0;whiteSpace=wrap;html=1;" vertex="1" parent="1">
          <mxGeometry x="1217" y="427.5" width="25" height="131" as="geometry" />
        </mxCell>
        <mxCell id="8orbVFQaiTQvULs6llBa-114" value="" style="edgeStyle=orthogonalEdgeStyle;rounded=0;orthogonalLoop=1;jettySize=auto;html=1;endArrow=none;endFill=0;" edge="1" parent="1" source="8orbVFQaiTQvULs6llBa-98" target="8orbVFQaiTQvULs6llBa-113">
          <mxGeometry relative="1" as="geometry" />
        </mxCell>
        <mxCell id="8orbVFQaiTQvULs6llBa-98" value="AI识别" style="rounded=0;whiteSpace=wrap;html=1;" vertex="1" parent="1">
          <mxGeometry x="1284.5" y="427.5" width="25" height="131" as="geometry" />
        </mxCell>
        <mxCell id="8orbVFQaiTQvULs6llBa-103" value="主界面UI" style="rounded=0;whiteSpace=wrap;html=1;" vertex="1" parent="1">
          <mxGeometry x="1177.5" y="594.5" width="29" height="91.5" as="geometry" />
        </mxCell>
        <mxCell id="8orbVFQaiTQvULs6llBa-104" value="车载UI" style="rounded=0;whiteSpace=wrap;html=1;" vertex="1" parent="1">
          <mxGeometry x="1215.75" y="594.5" width="27.5" height="91.5" as="geometry" />
        </mxCell>
        <mxCell id="8orbVFQaiTQvULs6llBa-105" value="气象数据UI" style="rounded=0;whiteSpace=wrap;html=1;" vertex="1" parent="1">
          <mxGeometry x="1254" y="594.5" width="24" height="91.5" as="geometry" />
        </mxCell>
        <mxCell id="8orbVFQaiTQvULs6llBa-113" value="火灾识别" style="rounded=0;whiteSpace=wrap;html=1;" vertex="1" parent="1">
          <mxGeometry x="1285.5" y="594.5" width="24" height="91.5" as="geometry" />
        </mxCell>
        <mxCell id="8orbVFQaiTQvULs6llBa-116" value="TCP客户端" style="rounded=0;whiteSpace=wrap;html=1;" vertex="1" parent="1">
          <mxGeometry x="1357" y="593.5" width="24" height="91.5" as="geometry" />
        </mxCell>
      </root>
    </mxGraphModel>
  </diagram>
</mxfile>
